<?xml version="1.0" encoding="UTF-8" standalone="no"?><svg xmlns="http://www.w3.org/2000/svg" xmlns:xlink="http://www.w3.org/1999/xlink" contentScriptType="application/ecmascript" contentStyleType="text/css" height="300px" preserveAspectRatio="none" style="width:426px;height:300px;" version="1.1" viewBox="0 0 426 300" width="426px" zoomAndPan="magnify"><defs><filter height="300%" id="fmhef4ghwp01t" width="300%" x="-1" y="-1"><feGaussianBlur result="blurOut" stdDeviation="2.0"/><feColorMatrix in="blurOut" result="blurOut2" type="matrix" values="0 0 0 0 0 0 0 0 0 0 0 0 0 0 0 0 0 0 .4 0"/><feOffset dx="4.0" dy="4.0" in="blurOut2" result="blurOut3"/><feBlend in="SourceGraphic" in2="blurOut3" mode="normal"/></filter></defs><g><!--class Client--><rect fill="#FFFFFF" filter="url(#fmhef4ghwp01t)" height="39.9688" id="Client" style="stroke: #000000; stroke-width: 1.5;" width="41" x="6" y="21.5"/><text fill="#000000" font-family="sans-serif" font-size="12" lengthAdjust="spacingAndGlyphs" textLength="35" x="9" y="37.6387">Client</text><line style="stroke: #000000; stroke-width: 1.5;" x1="7" x2="46" y1="45.4688" y2="45.4688"/><line style="stroke: #000000; stroke-width: 1.5;" x1="7" x2="46" y1="53.4688" y2="53.4688"/><!--class /Target--><rect fill="#FFFFFF" filter="url(#fmhef4ghwp01t)" height="66.7422" id="/Target" style="stroke: #000000; stroke-width: 1.5;" width="74" x="137.5" y="8"/><text fill="#000000" font-family="sans-serif" font-size="12" font-style="italic" lengthAdjust="spacingAndGlyphs" textLength="70" x="139.5" y="24.1387">«interface»</text><text fill="#000000" font-family="sans-serif" font-size="12" font-style="italic" lengthAdjust="spacingAndGlyphs" textLength="45" x="152" y="38.1074">/Target</text><line style="stroke: #000000; stroke-width: 1.5;" x1="138.5" x2="210.5" y1="45.9375" y2="45.9375"/><line style="stroke: #000000; stroke-width: 1.5;" x1="138.5" x2="210.5" y1="53.9375" y2="53.9375"/><text fill="#000000" font-family="sans-serif" font-size="11" lengthAdjust="spacingAndGlyphs" textLength="62" x="143.5" y="68.1479">/request()*</text><!--class /Adapter--><rect fill="#FFFFFF" filter="url(#fmhef4ghwp01t)" height="52.7734" id="/Adapter" style="stroke: #000000; stroke-width: 1.5;" width="74" x="137.5" y="135"/><text fill="#000000" font-family="sans-serif" font-size="12" lengthAdjust="spacingAndGlyphs" textLength="54" x="147.5" y="151.1387">/Adapter</text><line style="stroke: #000000; stroke-width: 1.5;" x1="138.5" x2="210.5" y1="158.9688" y2="158.9688"/><line style="stroke: #000000; stroke-width: 1.5;" x1="138.5" x2="210.5" y1="166.9688" y2="166.9688"/><text fill="#000000" font-family="sans-serif" font-size="11" lengthAdjust="spacingAndGlyphs" textLength="62" x="143.5" y="181.1792">/request()*</text><!--class /Adaptee--><rect fill="#FFFFFF" filter="url(#fmhef4ghwp01t)" height="52.7734" id="/Adaptee" style="stroke: #000000; stroke-width: 1.5;" width="113" x="302" y="135"/><text fill="#000000" font-family="sans-serif" font-size="12" lengthAdjust="spacingAndGlyphs" textLength="57" x="330" y="151.1387">/Adaptee</text><line style="stroke: #000000; stroke-width: 1.5;" x1="303" x2="414" y1="158.9688" y2="158.9688"/><line style="stroke: #000000; stroke-width: 1.5;" x1="303" x2="414" y1="166.9688" y2="166.9688"/><text fill="#000000" font-family="sans-serif" font-size="11" lengthAdjust="spacingAndGlyphs" textLength="101" x="308" y="181.1792">/specificRequest()</text><path d="M94,248 L94,288.2656 A0,0 0 0 0 94,288.2656 L255,288.2656 A0,0 0 0 0 255,288.2656 L255,258 L245,248 L178.5,248 L174.5,188.0997 L170.5,248 L94,248 A0,0 0 0 0 94,248 " fill="#FFFFE0" filter="url(#fmhef4ghwp01t)" style="stroke: #000000; stroke-width: 1.0;"/><path d="M245,248 L245,258 L255,258 L245,248 " fill="#FFFFE0" style="stroke: #000000; stroke-width: 1.0;"/><text fill="#000000" font-family="sans-serif" font-size="13" lengthAdjust="spacingAndGlyphs" textLength="118" x="100" y="265.0669">Adapter::request()</text><text fill="#000000" font-family="sans-serif" font-size="13" lengthAdjust="spacingAndGlyphs" textLength="136" x="104" y="280.1997">this.specificRequest()</text><!--link Client to /Target--><path d="M47.0234,41.5 C75.3064,41.5 103.5893,41.5 131.8723,41.5 " fill="none" id="Client-/Target" style="stroke: #000000; stroke-width: 1.0;"/><polygon fill="#000000" points="137.1534,41.5,128.1534,37.5,132.1534,41.5,128.1534,45.5,137.1534,41.5" style="stroke: #000000; stroke-width: 1.0;"/><text fill="#000000" font-family="sans-serif" font-size="13" lengthAdjust="spacingAndGlyphs" textLength="8" x="121.5301" y="37.2201">1</text><!--link /Target to /Adapter--><path d="M174.5,95.3326 C174.5,109.0345 174.5,123.1701 174.5,134.8402 " fill="none" id="/Target-/Adapter" style="stroke: #000000; stroke-width: 1.0; stroke-dasharray: 7.0,7.0;"/><polygon fill="none" points="167.5001,95.2461,174.5,75.246,181.5001,95.246,167.5001,95.2461" style="stroke: #000000; stroke-width: 1.0;"/><!--link /Adapter to /Adaptee--><path d="M211.5156,161.5 C234.9473,161.5 258.379,161.5 281.8107,161.5 " fill="none" id="/Adapter-/Adaptee" style="stroke: #000000; stroke-width: 1.0;"/><polygon fill="none" points="281.9455,154.4999,301.9455,161.5,281.9454,168.4999,281.9455,154.4999" style="stroke: #000000; stroke-width: 1.0;"/><!--
@startuml class-adapter


hide circle

skinparam class {
    BackgroundColor white
    ArrowColor black
    BorderColor black
}

skinparam note {
    BackgroundColor lightyellow
    ArrowColor black
    BorderColor black
}

skinparam nodesep 90

class Client{
}

interface /Target <<interface>> {
    /request()*
}

class /Adapter {
    /request()*
}

class /Adaptee {
    /specificRequest()
}

Client -right-> "1" "/Target"

"/Adapter" .up.|> "/Target"

"/Adapter" -right-|> "/Adaptee"

note bottom of "/Adapter": Adapter::request()\n this.specificRequest()

@enduml

PlantUML version 1.2019.01(Sat Feb 09 16:32:04 CET 2019)
(LGPL source distribution)
Java Runtime: OpenJDK Runtime Environment
JVM: OpenJDK 64-Bit Server VM
Java Version: 1.8.0_232-b09
Operating System: Linux
OS Version: 5.3.15-300.fc31.x86_64
Default Encoding: UTF-8
Language: fr
Country: FR
--></g></svg>