<?xml version="1.0" encoding="UTF-8" standalone="no"?><svg xmlns="http://www.w3.org/2000/svg" xmlns:xlink="http://www.w3.org/1999/xlink" contentScriptType="application/ecmascript" contentStyleType="text/css" height="314px" preserveAspectRatio="none" style="width:426px;height:314px;" version="1.1" viewBox="0 0 426 314" width="426px" zoomAndPan="magnify"><defs><filter height="300%" id="f1b7shtrp4jjm2" width="300%" x="-1" y="-1"><feGaussianBlur result="blurOut" stdDeviation="2.0"/><feColorMatrix in="blurOut" result="blurOut2" type="matrix" values="0 0 0 0 0 0 0 0 0 0 0 0 0 0 0 0 0 0 .4 0"/><feOffset dx="4.0" dy="4.0" in="blurOut2" result="blurOut3"/><feBlend in="SourceGraphic" in2="blurOut3" mode="normal"/></filter></defs><g><!--class Client--><rect fill="#FFFFFF" filter="url(#f1b7shtrp4jjm2)" height="39.9688" id="Client" style="stroke: #000000; stroke-width: 1.5;" width="41" x="6" y="21.5"/><text fill="#000000" font-family="sans-serif" font-size="12" lengthAdjust="spacingAndGlyphs" textLength="35" x="9" y="37.6387">Client</text><line style="stroke: #000000; stroke-width: 1.5;" x1="7" x2="46" y1="45.4688" y2="45.4688"/><line style="stroke: #000000; stroke-width: 1.5;" x1="7" x2="46" y1="53.4688" y2="53.4688"/><!--class /Target--><rect fill="#FFFFFF" filter="url(#f1b7shtrp4jjm2)" height="66.7422" id="/Target" style="stroke: #000000; stroke-width: 1.5;" width="74" x="137.5" y="8"/><text fill="#000000" font-family="sans-serif" font-size="12" font-style="italic" lengthAdjust="spacingAndGlyphs" textLength="70" x="139.5" y="24.1387">«interface»</text><text fill="#000000" font-family="sans-serif" font-size="12" font-style="italic" lengthAdjust="spacingAndGlyphs" textLength="45" x="152" y="38.1074">/Target</text><line style="stroke: #000000; stroke-width: 1.5;" x1="138.5" x2="210.5" y1="45.9375" y2="45.9375"/><line style="stroke: #000000; stroke-width: 1.5;" x1="138.5" x2="210.5" y1="53.9375" y2="53.9375"/><text fill="#000000" font-family="sans-serif" font-size="11" lengthAdjust="spacingAndGlyphs" textLength="62" x="143.5" y="68.1479">/request()*</text><!--class /Adapter--><rect fill="#FFFFFF" filter="url(#f1b7shtrp4jjm2)" height="52.7734" id="/Adapter" style="stroke: #000000; stroke-width: 1.5;" width="74" x="137.5" y="142"/><text fill="#000000" font-family="sans-serif" font-size="12" lengthAdjust="spacingAndGlyphs" textLength="54" x="147.5" y="158.1387">/Adapter</text><line style="stroke: #000000; stroke-width: 1.5;" x1="138.5" x2="210.5" y1="165.9688" y2="165.9688"/><line style="stroke: #000000; stroke-width: 1.5;" x1="138.5" x2="210.5" y1="173.9688" y2="173.9688"/><text fill="#000000" font-family="sans-serif" font-size="11" lengthAdjust="spacingAndGlyphs" textLength="62" x="143.5" y="188.1792">/request()*</text><!--class /Adaptee--><rect fill="#FFFFFF" filter="url(#f1b7shtrp4jjm2)" height="66.7422" id="/Adaptee" style="stroke: #000000; stroke-width: 1.5;" width="113" x="302" y="135"/><text fill="#000000" font-family="sans-serif" font-size="12" font-style="italic" lengthAdjust="spacingAndGlyphs" textLength="70" x="323.5" y="151.1387">«interface»</text><text fill="#000000" font-family="sans-serif" font-size="12" font-style="italic" lengthAdjust="spacingAndGlyphs" textLength="57" x="330" y="165.1074">/Adaptee</text><line style="stroke: #000000; stroke-width: 1.5;" x1="303" x2="414" y1="172.9375" y2="172.9375"/><line style="stroke: #000000; stroke-width: 1.5;" x1="303" x2="414" y1="180.9375" y2="180.9375"/><text fill="#000000" font-family="sans-serif" font-size="11" lengthAdjust="spacingAndGlyphs" textLength="101" x="308" y="195.1479">/specificRequest()</text><path d="M79,262 L79,302.2656 A0,0 0 0 0 79,302.2656 L270,302.2656 A0,0 0 0 0 270,302.2656 L270,272 L260,262 L178.5,262 L174.5,195.1107 L170.5,262 L79,262 A0,0 0 0 0 79,262 " fill="#FFFFE0" filter="url(#f1b7shtrp4jjm2)" style="stroke: #000000; stroke-width: 1.0;"/><path d="M260,262 L260,272 L270,272 L260,262 " fill="#FFFFE0" style="stroke: #000000; stroke-width: 1.0;"/><text fill="#000000" font-family="sans-serif" font-size="13" lengthAdjust="spacingAndGlyphs" textLength="118" x="85" y="279.0669">Adapter::request()</text><text fill="#000000" font-family="sans-serif" font-size="13" lengthAdjust="spacingAndGlyphs" textLength="166" x="89" y="294.1997">adaptee.specificRequest()</text><!--link Client to /Target--><path d="M47.0234,41.5 C75.3064,41.5 103.5893,41.5 131.8723,41.5 " fill="none" id="Client-/Target" style="stroke: #000000; stroke-width: 1.0;"/><polygon fill="#000000" points="137.1534,41.5,128.1534,37.5,132.1534,41.5,128.1534,45.5,137.1534,41.5" style="stroke: #000000; stroke-width: 1.0;"/><text fill="#000000" font-family="sans-serif" font-size="13" lengthAdjust="spacingAndGlyphs" textLength="8" x="121.5301" y="37.2201">1</text><!--link /Target to /Adapter--><path d="M174.5,95.4674 C174.5,111.5194 174.5,128.4031 174.5,141.8887 " fill="none" id="/Target-/Adapter" style="stroke: #000000; stroke-width: 1.0; stroke-dasharray: 7.0,7.0;"/><polygon fill="none" points="167.5001,95.2003,174.5,75.2002,181.5001,95.2002,167.5001,95.2003" style="stroke: #000000; stroke-width: 1.0;"/><!--link /Adapter to /Adaptee--><path d="M211.5156,168.5 C239.8927,168.5 268.2698,168.5 296.6468,168.5 " fill="none" id="/Adapter-/Adaptee" style="stroke: #000000; stroke-width: 1.0;"/><polygon fill="#000000" points="301.9455,168.5,292.9455,164.5,296.9455,168.5,292.9455,172.5,301.9455,168.5" style="stroke: #000000; stroke-width: 1.0;"/><text fill="#000000" font-family="sans-serif" font-size="13" lengthAdjust="spacingAndGlyphs" textLength="65" x="229.0141" y="164.9163">1 adaptee</text><!--
@startuml object-adapter


hide circle

skinparam class {
    BackgroundColor white
    ArrowColor black
    BorderColor black
}

skinparam note {
    BackgroundColor lightyellow
    ArrowColor black
    BorderColor black
}

skinparam nodesep 90

class Client{
}

interface /Target <<interface>> {
    /request()*
}

class /Adapter {
    /request()*
}

interface /Adaptee <<interface>> {
    /specificRequest()
}


Client -right-> "1" "/Target"
"/Adapter" .up.|> "/Target"
"/Adapter" -right-> "1 adaptee" "/Adaptee"

note bottom of "/Adapter": Adapter::request()\n adaptee.specificRequest()

@enduml

PlantUML version 1.2019.01(Sat Feb 09 16:32:04 CET 2019)
(LGPL source distribution)
Java Runtime: OpenJDK Runtime Environment
JVM: OpenJDK 64-Bit Server VM
Java Version: 1.8.0_232-b09
Operating System: Linux
OS Version: 5.3.15-300.fc31.x86_64
Default Encoding: UTF-8
Language: fr
Country: FR
--></g></svg>